<svg xmlns="http://www.w3.org/2000/svg" version="1.1" xmlns:xlink="http://www.w3.org/1999/xlink" xmlns:svgjs="http://svgjs.dev/svgjs" width="1500" height="348" viewBox="0 0 1500 348"><g transform="matrix(1,0,0,1,-0.9067135833693101,0.20128815023971924)"><svg viewBox="0 0 396 92" data-background-color="#dedede" preserveAspectRatio="xMidYMid meet" height="348" width="1500" xmlns="http://www.w3.org/2000/svg" xmlns:xlink="http://www.w3.org/1999/xlink"><g id="tight-bounds" transform="matrix(1,0,0,1,0.24000344829704545,-0.05255068424327192)"><svg viewBox="0 0 395.52 92.10517206684267" height="92.10517206684267" width="395.52"><g><svg viewBox="0 0 395.52 92.10517206684267" height="92.10517206684267" width="395.52"><g><svg viewBox="0 0 395.52 92.10517206684267" height="92.10517206684267" width="395.52"><g id="textblocktransform"><svg viewBox="0 0 395.52 92.10517206684267" height="92.10517206684267" width="395.52" id="textblock"><g><svg viewBox="0 0 395.52 92.10517206684267" height="92.10517206684267" width="395.52"><g transform="matrix(1,0,0,1,0,0)"><svg width="395.52" viewBox="-3.1246099999999997 -37.816590000000005 244.43355757813347 56.92150940626361" height="92.10517206684267" data-palette-color="#374151"><path d="M7.055-2.565l-4.191 0.917c-0.554 0.121-0.901 0.095-1.041-0.079-0.14-0.174-0.268-0.521-0.382-1.043v0l-4.077-18.629c0 0-0.019-0.166-0.058-0.499-0.039-0.333 0.202-0.556 0.723-0.67v0l4.191-0.917c2.051-0.449 3.846-0.545 5.383-0.288 1.539 0.264 2.831 1.039 3.877 2.325 1.052 1.285 1.87 3.259 2.453 5.922v0c0.485 2.214 0.611 4.087 0.38 5.619-0.225 1.53-0.696 2.793-1.413 3.79-0.725 0.991-1.595 1.769-2.611 2.332-1.016 0.564-2.094 0.97-3.234 1.22zM4.134 11.873v0l-7.259-33.165c0 0 0.003-0.171 0.011-0.514 0.013-0.344 0.264-0.57 0.752-0.677v0l3.507-0.767c0.488-0.107 0.811-0.007 0.967 0.3 0.149 0.309 0.224 0.463 0.224 0.463v0l7.045 32.188c0.071 0.326 0.04 0.571-0.094 0.737-0.134 0.166-0.579 0.348-1.334 0.548-0.761 0.201-2.034 0.496-3.819 0.887zM17.188 9.169v0c-0.423 0.093-0.915 0.183-1.476 0.272-0.561 0.089-1.154 0.184-1.78 0.287v0c-0.691-2.845-1.452-5.155-2.285-6.931-0.827-1.784-1.627-3.145-2.398-4.082-0.765-0.938-1.401-1.584-1.908-1.937-0.499-0.348-0.749-0.522-0.749-0.522v0c0 0-0.074-0.103-0.221-0.31-0.148-0.207-0.035-0.47 0.338-0.79v0l2.683-2.43c0.521-0.114 0.902-0.01 1.143 0.313v0c0 0 0.336 0.21 1.008 0.629 0.67 0.413 1.504 1.148 2.5 2.206 1.004 1.063 2.022 2.519 3.054 4.368 1.04 1.854 1.923 4.216 2.647 7.088v0c0.1 0.456 0.033 0.805-0.201 1.048-0.235 0.236-1.02 0.5-2.355 0.791zM3.157-18.736l2.457 11.224 0.977-0.213c0.521-0.114 0.925-0.373 1.212-0.778 0.287-0.404 0.436-1.078 0.447-2.022 0.013-0.938-0.165-2.25-0.534-3.937v0c-0.257-1.172-0.538-2.117-0.845-2.835-0.307-0.718-0.654-1.211-1.041-1.481-0.382-0.278-0.833-0.36-1.354-0.247v0zM21.797 8.08v0l-4.272-22.111c-0.158-0.818-0.115-1.421 0.129-1.807 0.252-0.381 0.771-0.682 1.558-0.902 0.786-0.22 1.932-0.475 3.437-0.766v0l4.545 23.525c0.063 0.327 0.032 0.571-0.093 0.731-0.119 0.159-0.568 0.33-1.346 0.515-0.779 0.184-2.098 0.456-3.958 0.815zM19.276-19.146v0c-0.812 0.157-1.51 0.003-2.095-0.461-0.579-0.465-1.017-1.467-1.314-3.005v0c-0.22-1.139-0.153-2.109 0.201-2.911 0.356-0.795 1.037-1.29 2.046-1.485v0c1.015-0.196 1.752-0.067 2.213 0.387 0.461 0.454 0.821 1.349 1.079 2.684v0c0.253 1.309 0.2 2.389-0.158 3.239-0.365 0.851-1.022 1.369-1.972 1.552zM35.475 6.146v0c-1.578 0.264-2.967 0.286-4.165 0.067-1.2-0.225-1.894-0.897-2.081-2.014v0c-0.066-0.395-0.078-0.872-0.037-1.434 0.041-0.561 0.177-1.165 0.407-1.812v0c0.751 0.246 1.509 0.397 2.276 0.451 0.767 0.061 1.496 0.034 2.186-0.081v0c0.855-0.143 1.454-0.439 1.798-0.889 0.352-0.444 0.475-0.978 0.371-1.603v0c-0.06-0.362-0.188-0.763-0.383-1.203-0.189-0.442-0.576-0.901-1.163-1.377v0l-5.037-3.812c-1.009-0.778-1.771-1.597-2.287-2.457-0.514-0.854-0.832-1.642-0.953-2.365v0c-0.192-1.151-0.112-2.229 0.241-3.234 0.359-1.006 1.082-1.877 2.169-2.613 1.093-0.737 2.659-1.276 4.697-1.616v0c1.835-0.307 3.208-0.36 4.12-0.162 0.912 0.199 1.53 0.518 1.853 0.958 0.329 0.432 0.529 0.861 0.601 1.289v0c0.159 0.953-0.054 1.902-0.64 2.844v0c-0.718-0.252-1.442-0.401-2.173-0.448-0.738-0.046-1.481-0.006-2.231 0.119v0c-0.789 0.132-1.352 0.361-1.69 0.688-0.331 0.326-0.458 0.719-0.381 1.179v0c0.044 0.263 0.178 0.562 0.403 0.896 0.225 0.334 0.704 0.775 1.438 1.321v0l4.257 3.091c1.173 0.953 1.997 1.836 2.471 2.649 0.474 0.813 0.815 1.844 1.024 3.093v0c0.367 2.196-0.09 4.054-1.371 5.572-1.288 1.513-3.195 2.481-5.72 2.903zM45.616 4.013v0l-4.607-33.939c-0.112-0.826-0.042-1.424 0.21-1.795 0.252-0.371 0.767-0.642 1.545-0.815 0.784-0.174 1.935-0.364 3.455-0.57v0l1.746 12.862c0.485-0.638 1.144-1.161 1.976-1.57 0.832-0.416 1.66-0.68 2.486-0.792v0c1.288-0.175 2.285-0.068 2.991 0.321 0.712 0.388 1.248 1.038 1.607 1.952 0.359 0.907 0.634 2.07 0.827 3.49v0l2.424 17.856c0.045 0.33-0.033 0.576-0.233 0.738-0.193 0.161-0.684 0.312-1.473 0.453-0.788 0.141-2.091 0.334-3.907 0.58v0l-2.324-17.123c-0.102-0.753-0.269-1.434-0.499-2.041-0.231-0.608-0.726-0.86-1.486-0.757v0c-0.297 0.04-0.599 0.122-0.905 0.244-0.299 0.128-0.614 0.332-0.946 0.613v0l2.518 18.55c0.045 0.33 0.004 0.571-0.124 0.723-0.134 0.153-0.585 0.298-1.354 0.436-0.775 0.139-2.084 0.333-3.927 0.584zM69.528 1.593v0c-0.929 0.094-1.822 0.101-2.682 0.021-0.866-0.08-1.654-0.352-2.364-0.816-0.717-0.463-1.32-1.19-1.809-2.178-0.482-0.983-0.81-2.337-0.985-4.062v0c-0.172-1.691-0.156-3.09 0.046-4.196 0.209-1.107 0.556-1.986 1.04-2.638 0.483-0.652 1.056-1.119 1.717-1.4 0.654-0.287 1.346-0.468 2.076-0.543v0c0.365-0.037 0.884-0.039 1.557-0.007 0.673 0.032 1.241 0.176 1.702 0.43v0c0 0-0.019-0.189-0.057-0.567-0.039-0.385-0.085-0.842-0.14-1.373-0.054-0.531-0.104-1.025-0.15-1.482v0c-0.044-0.431-0.145-0.773-0.305-1.024-0.16-0.252-0.395-0.429-0.707-0.532-0.312-0.102-0.733-0.127-1.264-0.073v0c-0.929 0.094-1.937 0.297-3.024 0.609-1.087 0.311-2.031 0.658-2.829 1.041v0c-0.356-0.533-0.614-1.094-0.774-1.681-0.16-0.587-0.26-1.079-0.301-1.477v0c-0.03-0.298-0.007-0.626 0.072-0.982 0.084-0.364 0.233-0.64 0.448-0.83v0c0.338-0.302 1.133-0.691 2.385-1.166 1.258-0.476 2.882-0.815 4.872-1.017v0c2.282-0.231 3.942 0.049 4.98 0.841 1.033 0.8 1.663 2.327 1.892 4.583v0l0.237 2.328c0.192 1.89 0.389 3.83 0.59 5.82 0.201 1.983 0.373 3.845 0.516 5.586 0.143 1.741 0.227 3.23 0.253 4.468v0c-0.779 0.582-1.767 1.074-2.967 1.477-1.191 0.409-2.533 0.689-4.025 0.84zM69.462-3.014v0c0.232-0.024 0.476-0.092 0.734-0.205 0.257-0.106 0.444-0.249 0.559-0.428v0c-0.004-0.368-0.037-0.928-0.1-1.679-0.055-0.745-0.127-1.548-0.214-2.411-0.087-0.862-0.166-1.638-0.236-2.328v0c-0.183-0.149-0.403-0.237-0.66-0.264-0.25-0.022-0.475-0.022-0.674-0.002v0c-0.265 0.027-0.502 0.108-0.709 0.242-0.2 0.141-0.361 0.368-0.484 0.683-0.116 0.307-0.188 0.723-0.215 1.248-0.034 0.519-0.011 1.177 0.07 1.973v0c0.061 0.597 0.138 1.098 0.233 1.504 0.089 0.413 0.204 0.753 0.344 1.02 0.148 0.273 0.334 0.455 0.558 0.547 0.231 0.097 0.496 0.131 0.794 0.1zM85.418 0.263v0c-1.33 0.091-2.504 0.027-3.521-0.191-1.01-0.212-1.813-0.514-2.407-0.908v0l-2.262-33.123c-0.057-0.831 0.043-1.43 0.299-1.794 0.262-0.372 0.786-0.618 1.573-0.739 0.794-0.121 1.972-0.235 3.535-0.342v0l0.864 12.651c0.5-0.502 1.098-0.9 1.793-1.195 0.702-0.295 1.481-0.472 2.339-0.53v0c1.33-0.091 2.423 0.159 3.278 0.748 0.862 0.589 1.543 1.612 2.044 3.068 0.5 1.449 0.835 3.418 1.005 5.905v0c0.193 2.827 0.162 5.208-0.094 7.143-0.249 1.935-0.667 3.497-1.254 4.686-0.587 1.189-1.276 2.112-2.066 2.768-0.791 0.655-1.625 1.113-2.502 1.373-0.884 0.261-1.759 0.421-2.624 0.48zM85.933-4.674v0c0.233-0.016 0.48-0.16 0.743-0.431 0.269-0.266 0.503-0.756 0.701-1.471 0.205-0.716 0.343-1.734 0.413-3.056 0.077-1.322 0.044-3.03-0.099-5.125v0c-0.104-1.53-0.26-2.735-0.468-3.616-0.208-0.888-0.458-1.516-0.75-1.883-0.292-0.361-0.654-0.527-1.086-0.498v0c-0.266 0.018-0.539 0.087-0.818 0.207-0.273 0.119-0.533 0.32-0.781 0.604v0l1.021 14.945c0.142 0.124 0.305 0.213 0.489 0.268 0.191 0.054 0.403 0.073 0.635 0.056zM97.221-0.947v0l-1.168-34.23c-0.028-0.833 0.102-1.421 0.39-1.765 0.288-0.343 0.828-0.562 1.618-0.655 0.797-0.094 1.962-0.167 3.495-0.22v0l0.442 12.973c0.547-0.586 1.255-1.04 2.125-1.363 0.869-0.33 1.72-0.509 2.553-0.538v0c1.299-0.044 2.28 0.162 2.943 0.62 0.669 0.457 1.137 1.159 1.403 2.104 0.265 0.938 0.423 2.123 0.471 3.556v0l0.615 18.009c0.011 0.333-0.091 0.57-0.306 0.711-0.209 0.141-0.712 0.241-1.511 0.302-0.798 0.061-2.114 0.122-3.946 0.184v0l-0.589-17.27c-0.026-0.76-0.123-1.453-0.291-2.081-0.168-0.628-0.635-0.929-1.402-0.903v0c-0.3 0.01-0.608 0.061-0.925 0.152-0.31 0.097-0.645 0.269-1.003 0.515v0l0.638 18.709c0.011 0.333-0.054 0.569-0.196 0.707-0.149 0.138-0.612 0.238-1.39 0.297-0.785 0.06-2.107 0.122-3.966 0.186zM135.833-1.153v0c-0.633-0.01-1.283-0.037-1.949-0.08-0.666-0.044-1.349-0.088-2.048-0.132v0c0.024-1.533 0.007-3.03-0.05-4.491-0.064-1.468-0.192-2.87-0.385-4.206-0.199-1.33-0.514-2.558-0.943-3.686-0.429-1.12-0.988-2.086-1.675-2.896v0c-0.36-0.439-0.781-0.786-1.264-1.04-0.476-0.261-0.947-0.411-1.413-0.452v0l0.013-0.849 6.903-16.915c0.669-0.156 1.321-0.256 1.955-0.3 0.634-0.037 1.184-0.052 1.651-0.044v0c1.96 0.03 2.749 0.509 2.368 1.436v0l-5.9 13.491c1.807 1.722 3.125 4.222 3.954 7.502 0.829 3.273 1.21 7.123 1.141 11.549v0c-0.007 0.433-0.151 0.731-0.434 0.893-0.283 0.162-0.924 0.236-1.924 0.22zM121.357-1.477v0l0.527-33.946c0.005-0.333 0.092-0.565 0.26-0.696 0.169-0.131 0.643-0.207 1.424-0.228 0.78-0.021 2.121-0.017 4.02 0.012v0l-0.526 33.946c-0.005 0.333-0.082 0.565-0.231 0.697-0.155 0.131-0.633 0.207-1.434 0.227-0.8 0.021-2.147 0.017-4.04-0.012zM146.954-0.271v0c-0.932-0.046-1.817-0.174-2.655-0.382-0.844-0.209-1.582-0.596-2.215-1.162-0.639-0.566-1.126-1.374-1.461-2.426-0.328-1.044-0.45-2.432-0.363-4.163v0c0.085-1.698 0.31-3.078 0.676-4.141 0.373-1.063 0.848-1.88 1.424-2.452 0.576-0.572 1.212-0.948 1.908-1.127 0.69-0.186 1.401-0.261 2.134-0.224v0c0.366 0.018 0.88 0.094 1.541 0.227 0.661 0.133 1.2 0.36 1.618 0.681v0c0 0 0.009-0.19 0.028-0.569 0.019-0.386 0.042-0.846 0.069-1.379 0.027-0.533 0.051-1.029 0.074-1.488v0c0.022-0.433-0.028-0.786-0.147-1.058-0.12-0.273-0.326-0.483-0.62-0.632-0.293-0.148-0.706-0.235-1.238-0.262v0c-0.932-0.046-1.959 0.003-3.081 0.147-1.122 0.144-2.106 0.346-2.954 0.604v0c-0.271-0.581-0.442-1.173-0.512-1.778-0.07-0.604-0.095-1.106-0.076-1.505v0c0.015-0.3 0.088-0.62 0.218-0.961 0.137-0.347 0.327-0.598 0.569-0.752v0c0.379-0.248 1.224-0.513 2.532-0.795 1.316-0.282 2.972-0.373 4.97-0.274v0c2.291 0.114 3.89 0.641 4.797 1.581 0.901 0.946 1.295 2.551 1.182 4.815v0l-0.116 2.337c-0.094 1.898-0.191 3.845-0.291 5.843-0.099 1.991-0.209 3.858-0.329 5.6-0.12 1.743-0.261 3.228-0.422 4.455v0c-0.857 0.458-1.909 0.796-3.154 1.014-1.239 0.225-2.608 0.301-4.106 0.226zM147.581-4.835v0c0.233 0.012 0.485-0.019 0.756-0.093 0.27-0.067 0.476-0.18 0.617-0.34v0c0.052-0.365 0.103-0.923 0.154-1.674 0.057-0.745 0.107-1.55 0.15-2.416 0.043-0.866 0.082-1.645 0.117-2.337v0c-0.158-0.175-0.362-0.295-0.613-0.361-0.244-0.059-0.466-0.093-0.666-0.103v0c-0.266-0.013-0.512 0.031-0.737 0.134-0.219 0.109-0.413 0.31-0.581 0.602-0.161 0.286-0.294 0.686-0.4 1.201-0.112 0.508-0.188 1.162-0.228 1.961v0c-0.03 0.599-0.028 1.107 0.004 1.522 0.026 0.422 0.088 0.775 0.188 1.061 0.106 0.292 0.262 0.5 0.469 0.624 0.214 0.131 0.47 0.204 0.77 0.219zM162.081 0.73v0c-1.595-0.13-2.947-0.448-4.056-0.954-1.109-0.512-1.617-1.333-1.524-2.462v0c0.033-0.399 0.138-0.865 0.315-1.399 0.177-0.534 0.457-1.086 0.838-1.658v0c0.668 0.423 1.366 0.754 2.095 0.995 0.729 0.247 1.442 0.399 2.14 0.456v0c0.864 0.071 1.517-0.07 1.961-0.422 0.45-0.344 0.7-0.832 0.752-1.463v0c0.03-0.365 0.004-0.786-0.077-1.261-0.075-0.474-0.338-1.014-0.791-1.62v0l-3.951-4.928c-0.788-1.001-1.326-1.981-1.616-2.942-0.29-0.953-0.405-1.796-0.345-2.526v0c0.095-1.163 0.437-2.188 1.024-3.077 0.594-0.888 1.509-1.556 2.743-2.003 1.241-0.447 2.891-0.586 4.95-0.418v0c1.854 0.152 3.198 0.436 4.034 0.852 0.836 0.416 1.356 0.877 1.563 1.382 0.213 0.499 0.302 0.965 0.267 1.396v0c-0.079 0.963-0.518 1.831-1.317 2.601v0c-0.635-0.42-1.301-0.742-1.997-0.966-0.704-0.225-1.435-0.368-2.193-0.43v0c-0.797-0.065-1.4 0.019-1.806 0.254-0.4 0.235-0.62 0.585-0.658 1.05v0c-0.022 0.266 0.035 0.588 0.172 0.967 0.136 0.379 0.493 0.923 1.07 1.633v0l3.372 4.038c0.904 1.211 1.487 2.269 1.747 3.173 0.26 0.904 0.339 1.988 0.236 3.25v0c-0.182 2.219-1.079 3.908-2.692 5.067-1.619 1.152-3.705 1.623-6.256 1.415zM172.435 1.143v0l3.837-34.035c0.093-0.828 0.308-1.391 0.644-1.688 0.335-0.298 0.901-0.435 1.697-0.413 0.802 0.023 1.965 0.121 3.489 0.293v0l-1.455 12.898c0.627-0.5 1.394-0.846 2.301-1.038 0.908-0.2 1.776-0.253 2.605-0.159v0c1.292 0.146 2.232 0.493 2.82 1.042 0.595 0.55 0.956 1.312 1.081 2.286 0.126 0.967 0.108 2.162-0.052 3.586v0l-2.019 17.907c-0.037 0.331-0.173 0.551-0.406 0.659-0.227 0.109-0.74 0.135-1.539 0.078-0.799-0.057-2.109-0.187-3.931-0.393v0l1.937-17.171c0.085-0.755 0.09-1.456 0.015-2.102-0.075-0.646-0.493-1.012-1.255-1.097v0c-0.298-0.034-0.611-0.029-0.937 0.015-0.321 0.051-0.677 0.172-1.068 0.362v0l-2.097 18.602c-0.037 0.331-0.136 0.555-0.297 0.671-0.167 0.115-0.64 0.146-1.419 0.092-0.785-0.055-2.102-0.187-3.951-0.395zM191.289 13.17v0c-1.806-0.272-2.98-0.695-3.52-1.269-0.535-0.566-0.75-1.195-0.646-1.888v0c0.075-0.494 0.214-1.019 0.42-1.575 0.2-0.563 0.442-1.009 0.727-1.336v0c0.262 0.275 0.684 0.541 1.265 0.797 0.588 0.257 1.242 0.44 1.961 0.549v0c0.593 0.089 1.156-0.112 1.689-0.605 0.525-0.487 0.992-1.526 1.4-3.116v0l-1.753-24.86c-0.024-0.509 0.028-0.855 0.157-1.038 0.128-0.176 0.596-0.22 1.405-0.132 0.816 0.089 2.176 0.278 4.081 0.565v0l0.147 8.75c0.034 1.118 0.036 2.264 0.008 3.439-0.022 1.176-0.06 2.273-0.112 3.291-0.052 1.017-0.093 1.843-0.121 2.479-0.029 0.636-0.043 0.954-0.043 0.955v0c0 0 0.07-0.31 0.211-0.929 0.147-0.618 0.345-1.414 0.592-2.389 0.247-0.967 0.525-2.028 0.834-3.181 0.308-1.147 0.61-2.254 0.906-3.322v0l1.986-6.871c0.145-0.517 0.332-0.86 0.56-1.028 0.227-0.161 0.749-0.207 1.568-0.138 0.811 0.075 2.14 0.252 3.985 0.531v0l-9.43 24.983c-0.777 2.067-1.549 3.677-2.316 4.828-0.759 1.146-1.605 1.902-2.536 2.268-0.932 0.365-2.073 0.446-3.425 0.242zM212.545 7.348v0c-0.919-0.166-1.78-0.405-2.583-0.72-0.81-0.315-1.493-0.794-2.048-1.436-0.561-0.643-0.941-1.507-1.138-2.593-0.192-1.078-0.134-2.47 0.174-4.175v0c0.302-1.673 0.702-3.013 1.202-4.021 0.506-1.006 1.082-1.756 1.726-2.249 0.644-0.494 1.323-0.784 2.037-0.873 0.708-0.096 1.423-0.079 2.145 0.052v0c0.361 0.065 0.86 0.206 1.499 0.422 0.638 0.217 1.144 0.511 1.518 0.883v0c0 0 0.034-0.187 0.101-0.561 0.069-0.381 0.15-0.833 0.244-1.358 0.095-0.525 0.183-1.014 0.265-1.466v0c0.077-0.426 0.073-0.783-0.011-1.069-0.084-0.286-0.262-0.521-0.533-0.706-0.272-0.184-0.67-0.324-1.195-0.418v0c-0.919-0.166-1.943-0.249-3.074-0.249-1.131-0.001-2.133 0.073-3.007 0.22v0c-0.195-0.611-0.288-1.22-0.28-1.829 0.008-0.608 0.048-1.109 0.118-1.503v0c0.053-0.295 0.166-0.603 0.34-0.924 0.181-0.326 0.401-0.551 0.66-0.674v0c0.408-0.197 1.279-0.352 2.613-0.464 1.341-0.111 2.995 0.012 4.964 0.367v0c2.257 0.407 3.775 1.134 4.555 2.182 0.772 1.054 0.957 2.696 0.555 4.927v0l-0.415 2.303c-0.337 1.87-0.683 3.789-1.038 5.757-0.354 1.962-0.702 3.799-1.044 5.512-0.343 1.713-0.673 3.168-0.99 4.364v0c-0.909 0.344-1.995 0.545-3.258 0.601-1.258 0.065-2.625-0.036-4.102-0.302zM213.753 2.902v0c0.23 0.041 0.483 0.043 0.761 0.005 0.277-0.031 0.495-0.117 0.657-0.258v0c0.098-0.355 0.22-0.902 0.366-1.641 0.152-0.731 0.305-1.523 0.459-2.376 0.154-0.853 0.292-1.621 0.415-2.303v0c-0.134-0.194-0.322-0.339-0.561-0.437-0.234-0.09-0.45-0.152-0.647-0.187v0c-0.262-0.047-0.512-0.035-0.749 0.038-0.231 0.08-0.449 0.254-0.653 0.522-0.196 0.263-0.38 0.643-0.551 1.14-0.176 0.49-0.335 1.128-0.477 1.916v0c-0.106 0.59-0.17 1.094-0.191 1.51-0.029 0.422-0.012 0.78 0.05 1.076 0.067 0.303 0.196 0.53 0.386 0.679 0.195 0.157 0.44 0.262 0.735 0.316zM223.052 18.903v0c-0.939-0.201-1.578-0.509-1.92-0.923-0.334-0.413-0.4-1.091-0.197-2.036v0l6.48-30.224c1.071-0.384 2.285-0.608 3.642-0.671 1.357-0.064 2.687 0.044 3.99 0.324v0c1.558 0.334 2.866 0.894 3.925 1.68 1.059 0.786 1.767 1.967 2.125 3.544 0.364 1.578 0.26 3.7-0.312 6.366v0c-0.559 2.607-1.141 4.797-1.746 6.57-0.6 1.78-1.219 3.206-1.858 4.276-0.638 1.07-1.297 1.866-1.974 2.389-0.67 0.518-1.347 0.829-2.031 0.935-0.692 0.111-1.393 0.09-2.104-0.063v0c-0.717-0.154-1.32-0.361-1.81-0.623-0.491-0.255-0.897-0.588-1.218-0.997v0l-2.062 9.621c-0.452 0.04-0.937 0.045-1.456 0.015-0.527-0.024-1.018-0.085-1.474-0.183zM230.25 5.842v0c0.261 0.056 0.535 0.002 0.822-0.162 0.292-0.155 0.616-0.553 0.971-1.192 0.362-0.638 0.746-1.637 1.154-2.995 0.407-1.358 0.859-3.194 1.355-5.508v0c0.335-1.564 0.526-2.758 0.573-3.58 0.04-0.823-0.056-1.406-0.29-1.749-0.235-0.337-0.596-0.557-1.085-0.663v0c-0.521-0.112-1.052-0.021-1.593 0.273v0l-3.088 14.402c0.158 0.375 0.328 0.65 0.509 0.825 0.187 0.176 0.411 0.293 0.672 0.349z" opacity="1" transform="matrix(1,0,0,1,0,0)" fill="#374151" class="wordmark-text-0" data-fill-palette-color="primary" id="text-0"></path></svg></g></svg></g></svg></g></svg></g><g></g></svg></g><defs></defs></svg><rect width="395.52" height="92.10517206684267" fill="none" stroke="none" visibility="hidden"></rect></g></svg></g></svg>