<svg xmlns="http://www.w3.org/2000/svg" version="1.1" xmlns:xlink="http://www.w3.org/1999/xlink" xmlns:svgjs="http://svgjs.dev/svgjs" width="1500" height="1500" viewBox="0 0 1500 1500"><rect width="1500" height="1500" fill="#000000"></rect><g transform="matrix(0.6666666666666666,0,0,0.6666666666666666,249.39393939393938,438.5856950067477)"><svg viewBox="0 0 396 247" data-background-color="#ffffff" preserveAspectRatio="xMidYMid meet" height="935" width="1500" xmlns="http://www.w3.org/2000/svg" xmlns:xlink="http://www.w3.org/1999/xlink"><g id="tight-bounds" transform="matrix(1,0,0,1,0.2400000000000091,-0.09999999999999432)"><svg viewBox="0 0 395.52 247.2" height="247.2" width="395.52"><g><svg></svg></g><g><svg viewBox="0 0 395.52 247.2" height="247.2" width="395.52"><g transform="matrix(1,0,0,1,75.54432000000001,62.717983503325954)"><svg viewBox="0 0 244.43135999999996 121.76403299334808" height="121.76403299334808" width="244.43135999999996"><g><svg viewBox="0 0 244.43135999999996 121.76403299334808" height="121.76403299334808" width="244.43135999999996"><g><svg viewBox="0 0 244.43135999999996 121.76403299334808" height="121.76403299334808" width="244.43135999999996"><g id="textblocktransform"><svg viewBox="0 0 244.43135999999996 121.76403299334808" height="121.76403299334808" width="244.43135999999996" id="textblock"><g><svg viewBox="0 0 244.43135999999996 121.76403299334808" height="121.76403299334808" width="244.43135999999996"><g transform="matrix(1,0,0,1,0,0)"><svg width="244.43135999999996" viewBox="3 -37.8 202.95 100.5" height="121.76403299334808" data-palette-color="#636365"><svg></svg><svg></svg><g class="wordmark-text-0" data-fill-palette-color="primary" id="text-0"><path d="M13 0h-9v-27.35l-1-5.05 1-3h16c2.433 0 4.627 0.377 6.58 1.13 1.947 0.747 3.497 2.01 4.65 3.79 1.147 1.787 1.72 4.247 1.72 7.38v0c0 2.833-0.517 5.123-1.55 6.87-1.033 1.753-2.467 3.063-4.3 3.93v0l0.5 0.55 4.95 6.2 2.85 2.55v3h-11.25l-7-10.65h-4.15v2.6l0.5 5zM12.5-27.4l0.5 8.9h4.9c1.733 0 3.117-0.327 4.15-0.98 1.033-0.647 1.55-1.853 1.55-3.62v0c0-1.233-0.25-2.16-0.75-2.78-0.5-0.613-1.19-1.02-2.07-1.22-0.887-0.2-1.913-0.3-3.08-0.3v0zM49.75-31.45l-6.35 6.4-6.35-6.4 6.35-6.35zM47.9 0h-9v-16.55l-1.05-4 1-3.05h9.05zM63.25 0.5v0c-2.433 0-4.583-0.25-6.45-0.75-1.867-0.5-3.317-1.017-4.35-1.55v0-6.95c1.367 0.6 2.773 1.067 4.22 1.4 1.453 0.333 2.763 0.557 3.93 0.67 1.167 0.12 2 0.18 2.5 0.18v0c0.567 0 0.967-0.093 1.2-0.28 0.233-0.18 0.35-0.403 0.35-0.67v0c0-0.367-0.3-0.677-0.9-0.93-0.6-0.247-1.733-0.57-3.4-0.97v0c-1.367-0.333-2.69-0.76-3.97-1.28-1.287-0.513-2.337-1.237-3.15-2.17-0.82-0.933-1.23-2.183-1.23-3.75v0c0-1.933 0.45-3.45 1.35-4.55 0.9-1.1 2.183-1.877 3.85-2.33 1.667-0.447 3.617-0.67 5.85-0.67v0c1.267 0 2.45 0.067 3.55 0.2 1.1 0.133 1.883 0.233 2.35 0.3v0l4.65 3-2.25 5.35-8.75-1.9c-1.067 0-1.6 0.35-1.6 1.05v0c0 0.733 0.767 1.283 2.3 1.65v0c1.2 0.267 2.433 0.557 3.7 0.87 1.267 0.32 2.423 0.73 3.47 1.23 1.053 0.5 1.907 1.167 2.56 2 0.647 0.833 0.97 1.933 0.97 3.3v0c0 2.533-0.907 4.423-2.72 5.67-1.82 1.253-4.497 1.88-8.03 1.88zM87.5 0h-9v-27.4l-1-5 1-3h9v8.1l-0.5 5.55 0.5 0.25c0.4-0.6 1.14-1.193 2.22-1.78 1.087-0.58 2.513-0.87 4.28-0.87v0c3 0 5.25 0.85 6.75 2.55 1.5 1.7 2.25 4.083 2.25 7.15v0 6.5l1.05 4.9-1.05 3.05h-9v-13.15c0-1.267-0.277-2.24-0.83-2.92-0.547-0.687-1.403-1.03-2.57-1.03v0l-3.1 1.45zM115.35 0.5v0c-1.433 0-2.757-0.21-3.97-0.63-1.22-0.413-2.197-1.137-2.93-2.17-0.733-1.033-1.1-2.467-1.1-4.3v0c0-1.667 0.417-3.05 1.25-4.15 0.833-1.1 1.967-1.917 3.4-2.45 1.433-0.533 3.05-0.8 4.85-0.8v0c1.733 0 3.033 0.19 3.9 0.57 0.867 0.387 1.617 0.78 2.25 1.18v0l0.35-0.3c0-1-0.083-1.833-0.25-2.5-0.167-0.667-0.55-1.173-1.15-1.52-0.6-0.353-1.533-0.53-2.8-0.53v0c-1.233 0-2.543 0.107-3.93 0.32-1.38 0.22-2.647 0.487-3.8 0.8-1.147 0.32-2.003 0.63-2.57 0.93v0-7.5c1.033-0.367 2.507-0.71 4.42-1.03 1.92-0.313 4.28-0.47 7.08-0.47v0c3 0 5.373 0.373 7.12 1.12 1.753 0.753 3.013 1.837 3.78 3.25 0.767 1.42 1.15 3.113 1.15 5.08v0 6.65l1 5.05-1 2.95h-8.55v-2.45l-0.5-0.25c-0.267 0.267-0.733 0.65-1.4 1.15-0.667 0.5-1.55 0.957-2.65 1.37-1.1 0.42-2.417 0.63-3.95 0.63zM119.6-6.05v0c0.9 0 1.673-0.083 2.32-0.25 0.653-0.167 1.13-0.317 1.43-0.45v0-0.95c0-0.433-0.31-0.85-0.93-1.25-0.613-0.4-1.57-0.6-2.87-0.6v0c-1.8 0-2.7 0.633-2.7 1.9v0c0 0.533 0.2 0.933 0.6 1.2 0.4 0.267 1.117 0.4 2.15 0.4zM154 0.5v0c-1.6 0-2.873-0.14-3.82-0.42-0.953-0.287-1.647-0.573-2.08-0.86-0.433-0.28-0.65-0.42-0.65-0.42v0 1.25h-9v-27.4l-1.05-5 1.05-3h9v8.05l-0.5 5.65 0.5 0.25c0.667-0.633 1.493-1.243 2.48-1.83 0.98-0.58 2.337-0.87 4.07-0.87v0c2.967 0 5.293 0.95 6.98 2.85 1.68 1.9 2.52 4.9 2.52 9v0c0 3.067-0.423 5.54-1.27 7.42-0.853 1.887-1.997 3.247-3.43 4.08-1.433 0.833-3.033 1.25-4.8 1.25zM149.75-6.35v0c1.3 0 2.333-0.46 3.1-1.38 0.767-0.913 1.15-2.287 1.15-4.12v0c0-1.8-0.317-3.11-0.95-3.93-0.633-0.813-1.567-1.22-2.8-1.22v0l-2.8 1.05v8.95c0 0 0.173 0.107 0.52 0.32 0.353 0.22 0.947 0.33 1.78 0.33zM176.75 0h-9v-27.4l-1-5 1-3h9v8.1l-0.5 5.55 0.5 0.25c0.4-0.6 1.14-1.193 2.22-1.78 1.087-0.58 2.513-0.87 4.28-0.87v0c3 0 5.25 0.85 6.75 2.55 1.5 1.7 2.25 4.083 2.25 7.15v0 6.5l1.05 4.9-1.05 3.05h-9v-13.15c0-1.267-0.273-2.24-0.82-2.92-0.553-0.687-1.413-1.03-2.58-1.03v0l-3.1 1.45z" fill="#ffffff" fill-rule="nonzero" stroke="none" stroke-width="1" stroke-linecap="butt" stroke-linejoin="miter" stroke-miterlimit="10" stroke-dasharray="" stroke-dashoffset="0" font-family="none" font-weight="none" font-size="none" text-anchor="none" style="mix-blend-mode: normal" data-fill-palette-color="primary" opacity="1"></path><path d="M13 50.55h-9v-27.2l-1-5.05 1-3.15h9v6l-0.5 8.95h3l8.05-14.95h9.95v3l-9.9 14.05 8.4 10.4 4.95 4.95v3h-11.25l-9.1-13.25-3.6 0.5v6.75l0.5 3zM46.95 51.05v0c-1.433 0-2.757-0.21-3.97-0.63-1.22-0.413-2.197-1.137-2.93-2.17-0.733-1.033-1.1-2.467-1.1-4.3v0c0-1.667 0.417-3.05 1.25-4.15 0.833-1.1 1.967-1.917 3.4-2.45 1.433-0.533 3.05-0.8 4.85-0.8v0c1.733 0 3.033 0.19 3.9 0.57 0.867 0.387 1.617 0.78 2.25 1.18v0l0.35-0.3c0-1-0.083-1.833-0.25-2.5-0.167-0.667-0.55-1.173-1.15-1.52-0.6-0.353-1.533-0.53-2.8-0.53v0c-1.233 0-2.54 0.107-3.92 0.32-1.387 0.22-2.653 0.487-3.8 0.8-1.153 0.32-2.013 0.63-2.58 0.93v0-7.5c1.033-0.367 2.51-0.71 4.43-1.03 1.913-0.313 4.27-0.47 7.07-0.47v0c3 0 5.377 0.373 7.13 1.12 1.747 0.753 3.003 1.837 3.77 3.25 0.767 1.42 1.15 3.113 1.15 5.08v0 6.65l1 5.05-1 2.95h-8.55v-2.45l-0.5-0.25c-0.267 0.267-0.733 0.65-1.4 1.15-0.667 0.5-1.55 0.957-2.65 1.37-1.1 0.42-2.417 0.63-3.95 0.63zM51.2 44.5v0c0.9 0 1.677-0.083 2.33-0.25 0.647-0.167 1.12-0.317 1.42-0.45v0-0.95c0-0.433-0.307-0.85-0.92-1.25-0.62-0.4-1.58-0.6-2.88-0.6v0c-1.8 0-2.7 0.633-2.7 1.9v0c0 0.533 0.2 0.933 0.6 1.2 0.4 0.267 1.117 0.4 2.15 0.4zM79.75 51.05v0c-2.433 0-4.583-0.25-6.45-0.75-1.867-0.5-3.317-1.017-4.35-1.55v0-6.95c1.367 0.6 2.773 1.067 4.22 1.4 1.453 0.333 2.763 0.557 3.93 0.67 1.167 0.12 2 0.18 2.5 0.18v0c0.567 0 0.967-0.093 1.2-0.28 0.233-0.18 0.35-0.403 0.35-0.67v0c0-0.367-0.3-0.677-0.9-0.93-0.6-0.247-1.733-0.57-3.4-0.97v0c-1.367-0.333-2.69-0.76-3.97-1.28-1.287-0.513-2.34-1.237-3.16-2.17-0.813-0.933-1.22-2.183-1.22-3.75v0c0-1.933 0.45-3.45 1.35-4.55 0.9-1.1 2.183-1.877 3.85-2.33 1.667-0.447 3.617-0.67 5.85-0.67v0c1.267 0 2.45 0.067 3.55 0.2 1.1 0.133 1.883 0.233 2.35 0.3v0l4.65 3-2.25 5.35-8.75-1.9c-1.067 0-1.6 0.35-1.6 1.05v0c0 0.733 0.767 1.283 2.3 1.65v0c1.2 0.267 2.433 0.557 3.7 0.87 1.267 0.32 2.423 0.73 3.47 1.23 1.053 0.5 1.907 1.167 2.56 2 0.647 0.833 0.97 1.933 0.97 3.3v0c0 2.533-0.907 4.423-2.72 5.67-1.82 1.253-4.497 1.88-8.03 1.88zM104 50.55h-9v-27.4l-1-5 1-3h9v8.1l-0.5 5.55 0.5 0.25c0.4-0.6 1.14-1.193 2.22-1.78 1.087-0.58 2.513-0.87 4.28-0.87v0c3 0 5.25 0.85 6.75 2.55 1.5 1.7 2.25 4.083 2.25 7.15v0 6.5l1.05 4.9-1.05 3.05h-9v-13.15c0-1.267-0.277-2.24-0.83-2.92-0.547-0.687-1.403-1.03-2.57-1.03v0l-3.1 1.45zM127.4 62.7v0l-7.05-2.5 2-7.45 7 2c1.433 0 2.473-0.373 3.12-1.12 0.653-0.753 1.147-1.797 1.48-3.13v0h-5.15l-5.5-17.1-0.95-6.5h9.5l2.75 16.5h1l2.75-16.5h9.5c0 0-0.107 0.523-0.32 1.57-0.22 1.053-0.52 2.447-0.9 4.18-0.387 1.733-0.837 3.64-1.35 5.72-0.52 2.087-1.063 4.187-1.63 6.3-0.567 2.12-1.15 4.063-1.75 5.83v0c-0.9 2.767-1.977 5.05-3.23 6.85-1.247 1.8-2.77 3.143-4.57 4.03-1.8 0.88-4.033 1.32-6.7 1.32zM157.85 51.05v0c-1.433 0-2.757-0.21-3.97-0.63-1.22-0.413-2.197-1.137-2.93-2.17-0.733-1.033-1.1-2.467-1.1-4.3v0c0-1.667 0.417-3.05 1.25-4.15 0.833-1.1 1.967-1.917 3.4-2.45 1.433-0.533 3.05-0.8 4.85-0.8v0c1.733 0 3.033 0.19 3.9 0.57 0.867 0.387 1.617 0.78 2.25 1.18v0l0.35-0.3c0-1-0.083-1.833-0.25-2.5-0.167-0.667-0.55-1.173-1.15-1.52-0.6-0.353-1.533-0.53-2.8-0.53v0c-1.233 0-2.543 0.107-3.93 0.32-1.38 0.22-2.647 0.487-3.8 0.8-1.147 0.32-2.003 0.63-2.57 0.93v0-7.5c1.033-0.367 2.51-0.71 4.43-1.03 1.913-0.313 4.27-0.47 7.07-0.47v0c3 0 5.373 0.373 7.12 1.12 1.753 0.753 3.013 1.837 3.78 3.25 0.767 1.42 1.15 3.113 1.15 5.08v0 6.65l1 5.05-1 2.95h-8.55v-2.45l-0.5-0.25c-0.267 0.267-0.733 0.65-1.4 1.15-0.667 0.5-1.55 0.957-2.65 1.37-1.1 0.42-2.417 0.63-3.95 0.63zM162.1 44.5v0c0.9 0 1.673-0.083 2.32-0.25 0.653-0.167 1.13-0.317 1.43-0.45v0-0.95c0-0.433-0.31-0.85-0.93-1.25-0.613-0.4-1.57-0.6-2.87-0.6v0c-1.8 0-2.7 0.633-2.7 1.9v0c0 0.533 0.2 0.933 0.6 1.2 0.4 0.267 1.117 0.4 2.15 0.4zM189.9 62.7h-9v-27.25l-1-5.5 1.55-3.05h7.45v2.15l0.5 0.25c0 0 0.3-0.25 0.9-0.75 0.6-0.5 1.427-0.993 2.48-1.48 1.047-0.48 2.27-0.72 3.67-0.72v0c2.967 0 5.293 0.95 6.98 2.85 1.68 1.9 2.52 4.9 2.52 9v0c0 3.067-0.423 5.54-1.27 7.42-0.853 1.887-1.997 3.247-3.43 4.08-1.433 0.833-3.033 1.25-4.8 1.25v0c-2.4 0-4.09-0.193-5.07-0.58-0.987-0.38-1.48-0.57-1.48-0.57v0zM192.2 44.1v0c1.267 0 2.293-0.45 3.08-1.35 0.78-0.9 1.17-2.267 1.17-4.1v0c0-1.8-0.317-3.117-0.95-3.95-0.633-0.833-1.567-1.25-2.8-1.25v0l-2.8 1.05v8.95c0 0 0.177 0.107 0.53 0.32 0.347 0.22 0.937 0.33 1.77 0.33z" fill="#ffffff" fill-rule="nonzero" stroke="none" stroke-width="1" stroke-linecap="butt" stroke-linejoin="miter" stroke-miterlimit="10" stroke-dasharray="" stroke-dashoffset="0" font-family="none" font-weight="none" font-size="none" text-anchor="none" style="mix-blend-mode: normal" data-fill-palette-color="secondary" opacity="1"></path></g></svg></g></svg></g></svg></g></svg></g></svg></g></svg></g><g><path d="M0 123.6c0-68.262 55.338-123.6 123.6-123.6 43.294 0 81.389 22.259 103.465 55.958l-3.102 0c-21.746-32.202-58.582-53.376-100.363-53.376-66.836 0-121.018 54.181-121.018 121.018 0 66.836 54.181 121.018 121.018 121.018 41.781 0 78.617-21.174 100.363-53.376l3.102 0c-22.076 33.699-60.171 55.958-103.465 55.958-68.262 0-123.6-55.338-123.6-123.6z" fill="#ffffff" stroke="transparent" data-fill-palette-color="tertiary"></path></g></svg></g><defs></defs></svg><rect width="395.52" height="247.2" fill="none" stroke="none" visibility="hidden"></rect></g></svg></g></svg>